# xmcd
#
# Track frame offsets:
# 150
# 17714
# 32946
# 49281
# 61113
# 75362
# 91762
# 108194
# 127448
# 143203
# 158532
# 176792
# 190899
# 208196
# 226768
# 245092
# 264287
#
# Disc length: 3780 seconds
#
#
# Revision: 5
# Processed by: cddbd v1.5.2PL0 Copyright (c) Steve Scherf et al.
# Submitted via: FreeRIP 2.951 
#
DISCID=e40ec211
DTITLE=Kenny Chesney - Greatest Hits
DYEAR=2000
DGENRE=Country
TTITLE0=I Lost It
TTITLE1=Don't Happen Twice
TTITLE2=The Tin Man
TTITLE3=Fall In Love
TTITLE4=All I Need To Know
TTITLE5=For The First Time
TTITLE6=Me And You
TTITLE7=Back Where I Come From [Live]
TTITLE8=When I Close My Eyes
TTITLE9=She 's Got It All
TTITLE10=That's Why I'm Here
TTITLE11=How Forever Feels
TTITLE12=You Had Me From Hello
TTITLE13=She Thinks My Tractor's Sexy
TTITLE14=What I Need To Do
TTITLE15=Baptism Duet with Randy Travis
TTITLE16=Because Of Your Love
EXTD=YEAR: 2000
EXTT0=
EXTT1=
EXTT2=
EXTT3=
EXTT4=
EXTT5=
EXTT6=
EXTT7=
EXTT8=
EXTT9=
EXTT10=
EXTT11=
EXTT12=
EXTT13=
EXTT14=
EXTT15=
EXTT16=
PLAYORDER=
